<svg width="257" height="162" viewBox="0 0 257 162" fill="none" xmlns="http://www.w3.org/2000/svg">
<path d="M73.3 33H79.8V68H73.3V33ZM55.2 68H48.7V33H55.2V68ZM73.8 53H54.65V47.45H73.8V53ZM110.579 68.5C107.845 68.5 105.329 68.05 103.029 67.15C100.729 66.25 98.7285 65 97.0285 63.4C95.3285 61.7667 94.0118 59.8667 93.0785 57.7C92.1452 55.5 91.6785 53.1 91.6785 50.5C91.6785 47.9 92.1452 45.5167 93.0785 43.35C94.0118 41.15 95.3285 39.25 97.0285 37.65C98.7285 36.0167 100.729 34.75 103.029 33.85C105.329 32.95 107.829 32.5 110.529 32.5C113.262 32.5 115.762 32.95 118.029 33.85C120.329 34.75 122.329 36.0167 124.029 37.65C125.729 39.25 127.045 41.15 127.979 43.35C128.912 45.5167 129.379 47.9 129.379 50.5C129.379 53.1 128.912 55.5 127.979 57.7C127.045 59.9 125.729 61.8 124.029 63.4C122.329 65 120.329 66.25 118.029 67.15C115.762 68.05 113.279 68.5 110.579 68.5ZM110.529 62.8C112.295 62.8 113.929 62.5 115.429 61.9C116.929 61.3 118.229 60.45 119.329 59.35C120.429 58.2167 121.279 56.9167 121.879 55.45C122.512 53.95 122.829 52.3 122.829 50.5C122.829 48.7 122.512 47.0667 121.879 45.6C121.279 44.1 120.429 42.8 119.329 41.7C118.229 40.5667 116.929 39.7 115.429 39.1C113.929 38.5 112.295 38.2 110.529 38.2C108.762 38.2 107.129 38.5 105.629 39.1C104.162 39.7 102.862 40.5667 101.729 41.7C100.629 42.8 99.7618 44.1 99.1285 45.6C98.5285 47.0667 98.2285 48.7 98.2285 50.5C98.2285 52.2667 98.5285 53.9 99.1285 55.4C99.7618 56.9 100.629 58.2167 101.729 59.35C102.829 60.45 104.129 61.3 105.629 61.9C107.129 62.5 108.762 62.8 110.529 62.8ZM141.268 68V33H146.618L161.918 58.55H159.118L174.168 33H179.518L179.568 68H173.418L173.368 42.65H174.668L161.868 64H158.968L145.968 42.65H147.468V68H141.268ZM200.022 47.55H217.422V52.9H200.022V47.55ZM200.522 62.55H220.272V68H194.022V33H219.572V38.45H200.522V62.55ZM48.7 129V94H54.05L69.35 119.55H66.55L81.6 94H86.95L87 129H80.85L80.8 103.65H82.1L69.3 125H66.4L53.4 103.65H54.9V129H48.7ZM107.454 108.55H124.854V113.9H107.454V108.55ZM107.954 123.55H127.704V129H101.454V94H127.004V99.45H107.954V123.55ZM139.95 129V94H145.3L167.25 120.95H164.6V94H171.05V129H165.7L143.75 102.05H146.4V129H139.95ZM200.479 129.5C195.679 129.5 191.912 128.15 189.179 125.45C186.479 122.75 185.129 118.85 185.129 113.75V94H191.629V113.5C191.629 117.1 192.395 119.717 193.929 121.35C195.495 122.983 197.695 123.8 200.529 123.8C203.362 123.8 205.545 122.983 207.079 121.35C208.612 119.717 209.379 117.1 209.379 113.5V94H215.779V113.75C215.779 118.85 214.412 122.75 211.679 125.45C208.979 128.15 205.245 129.5 200.479 129.5Z" fill="#CDEC75"/>
<line x1="8.00003" y1="4.00003" x2="257" y2="4.00003" stroke="#CDEC75" stroke-width="8"/>
<line x1="8.00003" y1="158" x2="257" y2="158" stroke="#CDEC75" stroke-width="8"/>
<line x1="253" y1="162" x2="253" y2="8.00002" stroke="#CDEC75" stroke-width="8"/>
<line x1="4" y1="162" x2="4" stroke="#CDEC75" stroke-width="8"/>
</svg>
