<svg width="257" height="162" viewBox="0 0 257 162" fill="none" xmlns="http://www.w3.org/2000/svg">
<mask id="path-1-outside-1_1_9" maskUnits="userSpaceOnUse" x="88" y="68" width="156" height="81" fill="black">
<rect fill="white" x="88" y="68" width="156" height="81"/>
<path d="M110.04 70H112.96V98H110.04V70ZM92.52 98H89.56V70H92.52V98ZM110.32 85.08H92.2V82.48H110.32V85.08ZM143.939 98.24C141.832 98.24 139.872 97.8933 138.059 97.2C136.272 96.48 134.712 95.48 133.379 94.2C132.072 92.8933 131.046 91.3867 130.299 89.68C129.579 87.9467 129.219 86.0533 129.219 84C129.219 81.9467 129.579 80.0667 130.299 78.36C131.046 76.6267 132.072 75.12 133.379 73.84C134.712 72.5333 136.272 71.5333 138.059 70.84C139.846 70.12 141.806 69.76 143.939 69.76C146.046 69.76 147.992 70.12 149.779 70.84C151.566 71.5333 153.112 72.52 154.419 73.8C155.752 75.08 156.779 76.5867 157.499 78.32C158.246 80.0533 158.619 81.9467 158.619 84C158.619 86.0533 158.246 87.9467 157.499 89.68C156.779 91.4133 155.752 92.92 154.419 94.2C153.112 95.48 151.566 96.48 149.779 97.2C147.992 97.8933 146.046 98.24 143.939 98.24ZM143.939 95.6C145.619 95.6 147.166 95.32 148.579 94.76C150.019 94.1733 151.259 93.36 152.299 92.32C153.366 91.2533 154.192 90.0267 154.779 88.64C155.366 87.2267 155.659 85.68 155.659 84C155.659 82.32 155.366 80.7867 154.779 79.4C154.192 77.9867 153.366 76.76 152.299 75.72C151.259 74.6533 150.019 73.84 148.579 73.28C147.166 72.6933 145.619 72.4 143.939 72.4C142.259 72.4 140.699 72.6933 139.259 73.28C137.819 73.84 136.566 74.6533 135.499 75.72C134.459 76.76 133.632 77.9867 133.019 79.4C132.432 80.7867 132.139 82.32 132.139 84C132.139 85.6533 132.432 87.1867 133.019 88.6C133.632 90.0133 134.459 91.2533 135.499 92.32C136.566 93.36 137.819 94.1733 139.259 94.76C140.699 95.32 142.259 95.6 143.939 95.6ZM174.854 98V70H177.294L190.094 91.84H188.814L201.494 70H203.934V98H201.094V74.44H201.774L190.094 94.44H188.694L176.934 74.44H177.694V98H174.854ZM225.297 82.52H240.097V85.04H225.297V82.52ZM225.617 95.44H242.457V98H222.657V70H241.857V72.56H225.617V95.44ZM89.56 147V119H92L104.8 140.84H103.52L116.2 119H118.64V147H115.8V123.44H116.48L104.8 143.44H103.4L91.64 123.44H92.4V147H89.56ZM140.003 131.52H154.803V134.04H140.003V131.52ZM140.323 144.44H157.163V147H137.363V119H156.563V121.56H140.323V144.44ZM173.721 147V119H176.161L195.481 143.32H194.201V119H197.121V147H194.681L175.401 122.68H176.681V147H173.721ZM227.14 147.24C223.567 147.24 220.753 146.213 218.7 144.16C216.647 142.107 215.62 139.067 215.62 135.04V119H218.58V134.92C218.58 138.227 219.327 140.667 220.82 142.24C222.313 143.813 224.42 144.6 227.14 144.6C229.887 144.6 232.007 143.813 233.5 142.24C234.993 140.667 235.74 138.227 235.74 134.92V119H238.62V135.04C238.62 139.067 237.593 142.107 235.54 144.16C233.513 146.213 230.713 147.24 227.14 147.24Z"/>
</mask>
<path d="M110.04 70H112.96V98H110.04V70ZM92.52 98H89.56V70H92.52V98ZM110.32 85.08H92.2V82.48H110.32V85.08ZM143.939 98.24C141.832 98.24 139.872 97.8933 138.059 97.2C136.272 96.48 134.712 95.48 133.379 94.2C132.072 92.8933 131.046 91.3867 130.299 89.68C129.579 87.9467 129.219 86.0533 129.219 84C129.219 81.9467 129.579 80.0667 130.299 78.36C131.046 76.6267 132.072 75.12 133.379 73.84C134.712 72.5333 136.272 71.5333 138.059 70.84C139.846 70.12 141.806 69.76 143.939 69.76C146.046 69.76 147.992 70.12 149.779 70.84C151.566 71.5333 153.112 72.52 154.419 73.8C155.752 75.08 156.779 76.5867 157.499 78.32C158.246 80.0533 158.619 81.9467 158.619 84C158.619 86.0533 158.246 87.9467 157.499 89.68C156.779 91.4133 155.752 92.92 154.419 94.2C153.112 95.48 151.566 96.48 149.779 97.2C147.992 97.8933 146.046 98.24 143.939 98.24ZM143.939 95.6C145.619 95.6 147.166 95.32 148.579 94.76C150.019 94.1733 151.259 93.36 152.299 92.32C153.366 91.2533 154.192 90.0267 154.779 88.64C155.366 87.2267 155.659 85.68 155.659 84C155.659 82.32 155.366 80.7867 154.779 79.4C154.192 77.9867 153.366 76.76 152.299 75.72C151.259 74.6533 150.019 73.84 148.579 73.28C147.166 72.6933 145.619 72.4 143.939 72.4C142.259 72.4 140.699 72.6933 139.259 73.28C137.819 73.84 136.566 74.6533 135.499 75.72C134.459 76.76 133.632 77.9867 133.019 79.4C132.432 80.7867 132.139 82.32 132.139 84C132.139 85.6533 132.432 87.1867 133.019 88.6C133.632 90.0133 134.459 91.2533 135.499 92.32C136.566 93.36 137.819 94.1733 139.259 94.76C140.699 95.32 142.259 95.6 143.939 95.6ZM174.854 98V70H177.294L190.094 91.84H188.814L201.494 70H203.934V98H201.094V74.44H201.774L190.094 94.44H188.694L176.934 74.44H177.694V98H174.854ZM225.297 82.52H240.097V85.04H225.297V82.52ZM225.617 95.44H242.457V98H222.657V70H241.857V72.56H225.617V95.44ZM89.56 147V119H92L104.8 140.84H103.52L116.2 119H118.64V147H115.8V123.44H116.48L104.8 143.44H103.4L91.64 123.44H92.4V147H89.56ZM140.003 131.52H154.803V134.04H140.003V131.52ZM140.323 144.44H157.163V147H137.363V119H156.563V121.56H140.323V144.44ZM173.721 147V119H176.161L195.481 143.32H194.201V119H197.121V147H194.681L175.401 122.68H176.681V147H173.721ZM227.14 147.24C223.567 147.24 220.753 146.213 218.7 144.16C216.647 142.107 215.62 139.067 215.62 135.04V119H218.58V134.92C218.58 138.227 219.327 140.667 220.82 142.24C222.313 143.813 224.42 144.6 227.14 144.6C229.887 144.6 232.007 143.813 233.5 142.24C234.993 140.667 235.74 138.227 235.74 134.92V119H238.62V135.04C238.62 139.067 237.593 142.107 235.54 144.16C233.513 146.213 230.713 147.24 227.14 147.24Z" fill="#FFFF00"/>
<path d="M110.04 70V69H109.04V70H110.04ZM112.96 70H113.96V69H112.96V70ZM112.96 98V99H113.96V98H112.96ZM110.04 98H109.04V99H110.04V98ZM92.52 98V99H93.52V98H92.52ZM89.56 98H88.56V99H89.56V98ZM89.56 70V69H88.56V70H89.56ZM92.52 70H93.52V69H92.52V70ZM110.32 85.08V86.08H111.32V85.08H110.32ZM92.2 85.08H91.2V86.08H92.2V85.08ZM92.2 82.48V81.48H91.2V82.48H92.2ZM110.32 82.48H111.32V81.48H110.32V82.48ZM110.04 71H112.96V69H110.04V71ZM111.96 70V98H113.96V70H111.96ZM112.96 97H110.04V99H112.96V97ZM111.04 98V70H109.04V98H111.04ZM92.52 97H89.56V99H92.52V97ZM90.56 98V70H88.56V98H90.56ZM89.56 71H92.52V69H89.56V71ZM91.52 70V98H93.52V70H91.52ZM110.32 84.08H92.2V86.08H110.32V84.08ZM93.2 85.08V82.48H91.2V85.08H93.2ZM92.2 83.48H110.32V81.48H92.2V83.48ZM109.32 82.48V85.08H111.32V82.48H109.32ZM138.059 97.2L137.685 98.1275L137.694 98.1309L137.702 98.1341L138.059 97.2ZM133.379 94.2L132.672 94.9071L132.679 94.9143L132.687 94.9214L133.379 94.2ZM130.299 89.68L129.376 90.0636L129.379 90.0722L129.383 90.0808L130.299 89.68ZM130.299 78.36L129.381 77.9644L129.378 77.9713L130.299 78.36ZM133.379 73.84L134.079 74.5544L134.079 74.5542L133.379 73.84ZM138.059 70.84L138.421 71.7723L138.433 71.7675L138.059 70.84ZM149.779 70.84L149.405 71.7676L149.417 71.7723L149.779 70.84ZM154.419 73.8L153.719 74.5144L153.727 74.5214L154.419 73.8ZM157.499 78.32L156.575 78.7036L156.581 78.7156L157.499 78.32ZM157.499 89.68L156.581 89.2843L156.576 89.2964L157.499 89.68ZM154.419 94.2L153.726 93.4786L153.719 93.4856L154.419 94.2ZM149.779 97.2L150.141 98.1323L150.153 98.1275L149.779 97.2ZM148.579 94.76L148.947 95.6897L148.956 95.6861L148.579 94.76ZM152.299 92.32L151.592 91.6129L151.592 91.6129L152.299 92.32ZM154.779 88.64L155.7 89.0296L155.703 89.0234L154.779 88.64ZM154.779 79.4L153.855 79.7834L153.858 79.7896L154.779 79.4ZM152.299 75.72L151.583 76.4181L151.592 76.4272L151.601 76.436L152.299 75.72ZM148.579 73.28L148.196 74.2036L148.206 74.2079L148.217 74.212L148.579 73.28ZM139.259 73.28L139.622 74.212L139.629 74.2091L139.636 74.2061L139.259 73.28ZM135.499 75.72L134.792 75.0129L134.792 75.0129L135.499 75.72ZM133.019 79.4L132.102 79.0019L132.098 79.0104L133.019 79.4ZM133.019 88.6L132.095 88.9834L132.099 88.9908L132.102 88.9981L133.019 88.6ZM135.499 92.32L134.783 93.0181L134.792 93.0272L134.801 93.036L135.499 92.32ZM139.259 94.76L138.882 95.6861L138.889 95.6891L138.897 95.692L139.259 94.76ZM143.939 97.24C141.944 97.24 140.106 96.9121 138.416 96.2659L137.702 98.1341C139.639 98.8746 141.721 99.24 143.939 99.24V97.24ZM138.433 96.2725C136.76 95.5982 135.309 94.6665 134.072 93.4786L132.687 94.9214C134.116 96.2935 135.785 97.3618 137.685 98.1275L138.433 96.2725ZM134.086 93.4929C132.868 92.2751 131.912 90.8726 131.215 89.2792L129.383 90.0808C130.179 91.9008 131.276 93.5115 132.672 94.9071L134.086 93.4929ZM131.223 89.2964C130.558 87.6956 130.219 85.9341 130.219 84H128.219C128.219 86.1725 128.6 88.1977 129.376 90.0636L131.223 89.2964ZM130.219 84C130.219 82.0657 130.558 80.3196 131.22 78.7487L129.378 77.9713C128.6 79.8137 128.219 81.8277 128.219 84H130.219ZM131.217 78.7556C131.914 77.1379 132.868 75.7404 134.079 74.5544L132.679 73.1256C131.277 74.4996 130.177 76.1155 129.381 77.9644L131.217 78.7556ZM134.079 74.5542C135.313 73.3449 136.757 72.4179 138.421 71.7723L137.697 69.9077C135.788 70.6488 134.112 71.7217 132.679 73.1258L134.079 74.5542ZM138.433 71.7675C140.089 71.1003 141.92 70.76 143.939 70.76V68.76C141.691 68.76 139.603 69.1397 137.685 69.9125L138.433 71.7675ZM143.939 70.76C145.93 70.76 147.748 71.0997 149.405 71.7675L150.153 69.9125C148.237 69.1403 146.162 68.76 143.939 68.76V70.76ZM149.417 71.7723C151.084 72.419 152.514 73.3336 153.719 74.5144L155.119 73.0856C153.711 71.7064 152.048 70.6477 150.141 69.9077L149.417 71.7723ZM153.727 74.5214C154.959 75.7044 155.908 77.0956 156.576 78.7036L158.423 77.9364C157.651 76.0778 156.546 74.4556 155.112 73.0786L153.727 74.5214ZM156.581 78.7156C157.269 80.3134 157.619 82.0706 157.619 84H159.619C159.619 81.8227 159.223 79.7933 158.417 77.9244L156.581 78.7156ZM157.619 84C157.619 85.9294 157.269 87.6866 156.581 89.2844L158.417 90.0756C159.223 88.2067 159.619 86.1773 159.619 84H157.619ZM156.576 89.2964C155.908 90.9044 154.959 92.2956 153.727 93.4786L155.112 94.9214C156.546 93.5444 157.651 91.9222 158.423 90.0636L156.576 89.2964ZM153.719 93.4856C152.511 94.6691 151.077 95.5988 149.405 96.2725L150.153 98.1275C152.055 97.3612 153.714 96.2909 155.119 94.9144L153.719 93.4856ZM149.417 96.2677C147.757 96.9121 145.934 97.24 143.939 97.24V99.24C146.157 99.24 148.228 98.8746 150.141 98.1323L149.417 96.2677ZM143.939 96.6C145.732 96.6 147.405 96.3008 148.947 95.6897L148.211 93.8303C146.926 94.3392 145.506 94.6 143.939 94.6V96.6ZM148.956 95.6861C150.513 95.0521 151.867 94.1667 153.006 93.0271L151.592 91.6129C150.652 92.5533 149.526 93.2946 148.202 93.8339L148.956 95.6861ZM153.006 93.0271C154.164 91.8696 155.063 90.5351 155.7 89.0296L153.858 88.2504C153.322 89.5182 152.568 90.6371 151.592 91.6129L153.006 93.0271ZM155.703 89.0234C156.344 87.4771 156.659 85.7986 156.659 84H154.659C154.659 85.5614 154.387 86.9762 153.855 88.2566L155.703 89.0234ZM156.659 84C156.659 82.2017 156.345 80.5338 155.7 79.0104L153.858 79.7896C154.387 81.0395 154.659 82.4383 154.659 84H156.659ZM155.703 79.0166C155.066 77.4818 154.163 76.1411 152.997 75.004L151.601 76.436C152.568 77.3789 153.319 78.4916 153.855 79.7834L155.703 79.0166ZM153.015 75.0219C151.872 73.8491 150.51 72.9578 148.942 72.348L148.217 74.212C149.528 74.7222 150.647 75.4576 151.583 76.4181L153.015 75.0219ZM148.962 72.3564C147.416 71.7146 145.738 71.4 143.939 71.4V73.4C145.5 73.4 146.915 73.6721 148.196 74.2036L148.962 72.3564ZM143.939 71.4C142.14 71.4 140.451 71.7146 138.882 72.3539L139.636 74.2061C140.947 73.672 142.378 73.4 143.939 73.4V71.4ZM138.897 72.348C137.331 72.957 135.959 73.8458 134.792 75.0129L136.206 76.4271C137.172 75.4609 138.308 74.723 139.622 74.212L138.897 72.348ZM134.792 75.0129C133.659 76.146 132.763 77.4788 132.102 79.0019L133.936 79.7981C134.502 78.4945 135.259 77.374 136.206 76.4271L134.792 75.0129ZM132.098 79.0104C131.454 80.5338 131.139 82.2017 131.139 84H133.139C133.139 82.4383 133.411 81.0395 133.94 79.7896L132.098 79.0104ZM131.139 84C131.139 85.7742 131.454 87.439 132.095 88.9834L133.943 88.2166C133.41 86.9343 133.139 85.5324 133.139 84H131.139ZM132.102 88.9981C132.762 90.519 133.655 91.8615 134.783 93.0181L136.215 91.6219C135.263 90.6452 134.503 89.5077 133.936 88.2019L132.102 88.9981ZM134.801 93.036C135.964 94.17 137.328 95.0529 138.882 95.6861L139.636 93.8339C138.311 93.2938 137.167 92.55 136.197 91.604L134.801 93.036ZM138.897 95.692C140.462 96.3007 142.146 96.6 143.939 96.6V94.6C142.372 94.6 140.936 94.3393 139.622 93.828L138.897 95.692ZM174.854 98H173.854V99H174.854V98ZM174.854 70V69H173.854V70H174.854ZM177.294 70L178.156 69.4944L177.867 69H177.294V70ZM190.094 91.84V92.84H191.839L190.956 91.3344L190.094 91.84ZM188.814 91.84L187.949 91.3379L187.077 92.84H188.814V91.84ZM201.494 70V69H200.918L200.629 69.4979L201.494 70ZM203.934 70H204.934V69H203.934V70ZM203.934 98V99H204.934V98H203.934ZM201.094 98H200.094V99H201.094V98ZM201.094 74.44V73.44H200.094V74.44H201.094ZM201.774 74.44L202.637 74.9443L203.516 73.44H201.774V74.44ZM190.094 94.44V95.44H190.668L190.957 94.9443L190.094 94.44ZM188.694 94.44L187.832 94.9469L188.122 95.44H188.694V94.44ZM176.934 74.44V73.44H175.186L176.072 74.9469L176.934 74.44ZM177.694 74.44H178.694V73.44H177.694V74.44ZM177.694 98V99H178.694V98H177.694ZM175.854 98V70H173.854V98H175.854ZM174.854 71H177.294V69H174.854V71ZM176.431 70.5056L189.231 92.3456L190.956 91.3344L178.156 69.4944L176.431 70.5056ZM190.094 90.84H188.814V92.84H190.094V90.84ZM189.679 92.3421L202.359 70.5021L200.629 69.4979L187.949 91.3379L189.679 92.3421ZM201.494 71H203.934V69H201.494V71ZM202.934 70V98H204.934V70H202.934ZM203.934 97H201.094V99H203.934V97ZM202.094 98V74.44H200.094V98H202.094ZM201.094 75.44H201.774V73.44H201.094V75.44ZM200.91 73.9357L189.23 93.9357L190.957 94.9443L202.637 74.9443L200.91 73.9357ZM190.094 93.44H188.694V95.44H190.094V93.44ZM189.556 93.9331L177.796 73.9331L176.072 74.9469L187.832 94.9469L189.556 93.9331ZM176.934 75.44H177.694V73.44H176.934V75.44ZM176.694 74.44V98H178.694V74.44H176.694ZM177.694 97H174.854V99H177.694V97ZM225.297 82.52V81.52H224.297V82.52H225.297ZM240.097 82.52H241.097V81.52H240.097V82.52ZM240.097 85.04V86.04H241.097V85.04H240.097ZM225.297 85.04H224.297V86.04H225.297V85.04ZM225.617 95.44H224.617V96.44H225.617V95.44ZM242.457 95.44H243.457V94.44H242.457V95.44ZM242.457 98V99H243.457V98H242.457ZM222.657 98H221.657V99H222.657V98ZM222.657 70V69H221.657V70H222.657ZM241.857 70H242.857V69H241.857V70ZM241.857 72.56V73.56H242.857V72.56H241.857ZM225.617 72.56V71.56H224.617V72.56H225.617ZM225.297 83.52H240.097V81.52H225.297V83.52ZM239.097 82.52V85.04H241.097V82.52H239.097ZM240.097 84.04H225.297V86.04H240.097V84.04ZM226.297 85.04V82.52H224.297V85.04H226.297ZM225.617 96.44H242.457V94.44H225.617V96.44ZM241.457 95.44V98H243.457V95.44H241.457ZM242.457 97H222.657V99H242.457V97ZM223.657 98V70H221.657V98H223.657ZM222.657 71H241.857V69H222.657V71ZM240.857 70V72.56H242.857V70H240.857ZM241.857 71.56H225.617V73.56H241.857V71.56ZM224.617 72.56V95.44H226.617V72.56H224.617ZM89.56 147H88.56V148H89.56V147ZM89.56 119V118H88.56V119H89.56ZM92 119L92.8627 118.494L92.573 118H92V119ZM104.8 140.84V141.84H106.545L105.663 140.334L104.8 140.84ZM103.52 140.84L102.655 140.338L101.783 141.84H103.52V140.84ZM116.2 119V118H115.624L115.335 118.498L116.2 119ZM118.64 119H119.64V118H118.64V119ZM118.64 147V148H119.64V147H118.64ZM115.8 147H114.8V148H115.8V147ZM115.8 123.44V122.44H114.8V123.44H115.8ZM116.48 123.44L117.344 123.944L118.222 122.44H116.48V123.44ZM104.8 143.44V144.44H105.374L105.664 143.944L104.8 143.44ZM103.4 143.44L102.538 143.947L102.828 144.44H103.4V143.44ZM91.64 123.44V122.44H89.8919L90.778 123.947L91.64 123.44ZM92.4 123.44H93.4V122.44H92.4V123.44ZM92.4 147V148H93.4V147H92.4ZM90.56 147V119H88.56V147H90.56ZM89.56 120H92V118H89.56V120ZM91.1373 119.506L103.937 141.346L105.663 140.334L92.8627 118.494L91.1373 119.506ZM104.8 139.84H103.52V141.84H104.8V139.84ZM104.385 141.342L117.065 119.502L115.335 118.498L102.655 140.338L104.385 141.342ZM116.2 120H118.64V118H116.2V120ZM117.64 119V147H119.64V119H117.64ZM118.64 146H115.8V148H118.64V146ZM116.8 147V123.44H114.8V147H116.8ZM115.8 124.44H116.48V122.44H115.8V124.44ZM115.616 122.936L103.936 142.936L105.664 143.944L117.344 123.944L115.616 122.936ZM104.8 142.44H103.4V144.44H104.8V142.44ZM104.262 142.933L92.502 122.933L90.778 123.947L102.538 143.947L104.262 142.933ZM91.64 124.44H92.4V122.44H91.64V124.44ZM91.4 123.44V147H93.4V123.44H91.4ZM92.4 146H89.56V148H92.4V146ZM140.003 131.52V130.52H139.003V131.52H140.003ZM154.803 131.52H155.803V130.52H154.803V131.52ZM154.803 134.04V135.04H155.803V134.04H154.803ZM140.003 134.04H139.003V135.04H140.003V134.04ZM140.323 144.44H139.323V145.44H140.323V144.44ZM157.163 144.44H158.163V143.44H157.163V144.44ZM157.163 147V148H158.163V147H157.163ZM137.363 147H136.363V148H137.363V147ZM137.363 119V118H136.363V119H137.363ZM156.563 119H157.563V118H156.563V119ZM156.563 121.56V122.56H157.563V121.56H156.563ZM140.323 121.56V120.56H139.323V121.56H140.323ZM140.003 132.52H154.803V130.52H140.003V132.52ZM153.803 131.52V134.04H155.803V131.52H153.803ZM154.803 133.04H140.003V135.04H154.803V133.04ZM141.003 134.04V131.52H139.003V134.04H141.003ZM140.323 145.44H157.163V143.44H140.323V145.44ZM156.163 144.44V147H158.163V144.44H156.163ZM157.163 146H137.363V148H157.163V146ZM138.363 147V119H136.363V147H138.363ZM137.363 120H156.563V118H137.363V120ZM155.563 119V121.56H157.563V119H155.563ZM156.563 120.56H140.323V122.56H156.563V120.56ZM139.323 121.56V144.44H141.323V121.56H139.323ZM173.721 147H172.721V148H173.721V147ZM173.721 119V118H172.721V119H173.721ZM176.161 119L176.944 118.378L176.644 118H176.161V119ZM195.481 143.32V144.32H197.552L196.264 142.698L195.481 143.32ZM194.201 143.32H193.201V144.32H194.201V143.32ZM194.201 119V118H193.201V119H194.201ZM197.121 119H198.121V118H197.121V119ZM197.121 147V148H198.121V147H197.121ZM194.681 147L193.897 147.621L194.198 148H194.681V147ZM175.401 122.68V121.68H173.332L174.617 123.301L175.401 122.68ZM176.681 122.68H177.681V121.68H176.681V122.68ZM176.681 147V148H177.681V147H176.681ZM174.721 147V119H172.721V147H174.721ZM173.721 120H176.161V118H173.721V120ZM175.378 119.622L194.698 143.942L196.264 142.698L176.944 118.378L175.378 119.622ZM195.481 142.32H194.201V144.32H195.481V142.32ZM195.201 143.32V119H193.201V143.32H195.201ZM194.201 120H197.121V118H194.201V120ZM196.121 119V147H198.121V119H196.121ZM197.121 146H194.681V148H197.121V146ZM195.465 146.379L176.185 122.059L174.617 123.301L193.897 147.621L195.465 146.379ZM175.401 123.68H176.681V121.68H175.401V123.68ZM175.681 122.68V147H177.681V122.68H175.681ZM176.681 146H173.721V148H176.681V146ZM218.7 144.16L217.993 144.867L217.993 144.867L218.7 144.16ZM215.62 119V118H214.62V119H215.62ZM218.58 119H219.58V118H218.58V119ZM235.74 119V118H234.74V119H235.74ZM238.62 119H239.62V118H238.62V119ZM235.54 144.16L234.833 143.453L234.828 143.458L235.54 144.16ZM227.14 146.24C223.767 146.24 221.232 145.277 219.407 143.453L217.993 144.867C220.275 147.149 223.366 148.24 227.14 148.24V146.24ZM219.407 143.453C217.604 141.65 216.62 138.906 216.62 135.04H214.62C214.62 139.227 215.689 142.563 217.993 144.867L219.407 143.453ZM216.62 135.04V119H214.62V135.04H216.62ZM215.62 120H218.58V118H215.62V120ZM217.58 119V134.92H219.58V119H217.58ZM217.58 134.92C217.58 138.352 218.352 141.092 220.095 142.928L221.545 141.552C220.302 140.241 219.58 138.101 219.58 134.92H217.58ZM220.095 142.928C221.822 144.749 224.22 145.6 227.14 145.6V143.6C224.62 143.6 222.804 142.878 221.545 141.552L220.095 142.928ZM227.14 145.6C230.084 145.6 232.496 144.751 234.225 142.928L232.775 141.552C231.518 142.876 229.69 143.6 227.14 143.6V145.6ZM234.225 142.928C235.968 141.092 236.74 138.352 236.74 134.92H234.74C234.74 138.101 234.018 140.241 232.775 141.552L234.225 142.928ZM236.74 134.92V119H234.74V134.92H236.74ZM235.74 120H238.62V118H235.74V120ZM237.62 119V135.04H239.62V119H237.62ZM237.62 135.04C237.62 138.906 236.636 141.65 234.833 143.453L236.247 144.867C238.551 142.563 239.62 139.227 239.62 135.04H237.62ZM234.828 143.458C233.032 145.277 230.514 146.24 227.14 146.24V148.24C230.913 148.24 233.994 147.15 236.252 144.862L234.828 143.458Z" fill="#FFFF00" mask="url(#path-1-outside-1_1_9)"/>
<line x1="8.00003" y1="4.00003" x2="257" y2="4.00003" stroke="#FFFF00" stroke-width="8"/>
<line x1="8.00003" y1="158" x2="257" y2="158" stroke="#FFFF00" stroke-width="8"/>
<line x1="253" y1="162" x2="253" y2="8.00002" stroke="#FFFF00" stroke-width="8"/>
<line x1="4" y1="162" x2="4" stroke="#FFFF00" stroke-width="8"/>
</svg>
